<svg xmlns="http://www.w3.org/2000/svg" width="46" height="50" fill="none"><mask id="a" width="46" height="50" x="0" y="0" maskUnits="userSpaceOnUse" style="mask-type:luminance"><path fill="#fff" d="M45.17.066H.09v49.656h45.08V.066Z"/></mask><g fill="#e22c38" fill-rule="evenodd" clip-rule="evenodd" mask="url(#a)"><path d="M.09 15.609h44.588v-1.876H.09v1.876ZM34.25 19.025h-4.93v17.538h-2.357v-11.9c0-.996-.057-1.626-.242-2.241-.358-1.231-1.187-2.547-2.23-3.075-.629-.322-1.357-.454-2.114-.454-.885 0-1.715.19-2.414.63-.93.572-1.644 1.814-1.972 3.016-.157.557-.2 1.172-.2 2.125v11.899h-2.357V19.025h-4.929v17.538H8.177l-.03-17.538H3.377v17.538H1.033V19.025H.09V17.15h44.588v1.875h-.942v17.538h-2.343V19.025h-4.8v17.538h-2.344V19.025ZM.756 10.825l1.372-1.876 1.357 1.876L2.128 12.7.756 10.825ZM6.971 44.189c.8.352 1.485 1.202 1.485 2.433 0 1.583-.843 2.593-1.914 2.9-.658.206-1.343.206-1.97.206H.755V39.016h4.043c.5 0 1.058.015 1.615.162.957.263 1.842 1.084 1.842 2.593 0 1.392-.77 2.066-1.285 2.345v.073Zm-2.1-.528c.371 0 .713-.044 1-.22.414-.234.7-.732.7-1.48 0-.732-.343-1.216-.844-1.391-.241-.103-.542-.133-.928-.133H2.413v3.224H4.87Zm1.857 2.96c0-.776-.371-1.216-.814-1.406-.286-.118-.615-.147-.9-.147h-2.6v3.253h2.571c.314 0 .615-.029.858-.116.557-.22.885-.734.885-1.583ZM8.954 10.751a.933.933 0 0 1-.615-.878c0-.514.4-.924.915-.924.5 0 .9.41.9.924 0 .41-.243.746-.6.864l.871 1.817H8.082l.872-1.803ZM21.684 48.16l-1.114 1.568H10.083l5.686-10.712h3.486v9.188l2.43-.044Zm-4.058.117V40.32h-1.085l-4.13 7.957h5.216ZM15.412 12.42h13.886v-1.876H15.412v1.876ZM19.63 9.003h5.63V7.128h-5.63v1.875ZM20.297 2.155h4.144V.294h-4.144v1.861ZM20.741 3.71H23.8l-1.53 2.11-1.528-2.11ZM32.675 39.016v10.712h-1.658V44.76h-5.3v4.968h-1.643V39.016h1.643v4.279h5.3v-4.279h1.658ZM35.162 10.737c-.357-.118-.6-.455-.6-.864 0-.514.4-.924.9-.924.514 0 .914.41.914.924 0 .41-.257.746-.614.878l.871 1.803H34.29l.872-1.817ZM39.926 45.36l-2.87 4.368h-1.658l3.743-5.525-3.571-5.187h1.986l2.6 3.78 2.47-3.78h1.601l-3.3 4.924 3.971 5.788h-1.972l-3-4.367ZM41.171 10.825l1.358-1.876 1.371 1.876L42.53 12.7l-1.358-1.876Z"/></g></svg>